<svg width="220" height="220" viewBox="0 0 220 220" fill="none" xmlns="http://www.w3.org/2000/svg">
  <defs>
    <filter id="shadow" x="4" y="18" width="182" height="180" filterUnits="userSpaceOnUse">
      <feDropShadow dx="0" dy="12" stdDeviation="9" flood-color="#8F5B2E" flood-opacity="0.24"/>
    </filter>
    <radialGradient id="shell" cx="0" cy="0" r="1" gradientUnits="userSpaceOnUse" gradientTransform="translate(106 96) rotate(134) scale(96 86)">
      <stop offset="0" stop-color="#F7D69F"/>
      <stop offset="0.45" stop-color="#E4A059"/>
      <stop offset="1" stop-color="#B96D2D"/>
    </radialGradient>
    <linearGradient id="crumb" x1="118" y1="70" x2="104" y2="164" gradientUnits="userSpaceOnUse">
      <stop stop-color="#855021"/>
      <stop offset="1" stop-color="#D89A63"/>
    </linearGradient>
  </defs>
  <g filter="url(#shadow)">
    <path d="M38 132C38 81 76 40 127 40C146 40 162 46 170 58C176 66 177 80 173 92C167 109 155 116 145 123C134 130 129 142 121 156C112 170 99 177 84 177C57 177 38 158 38 132Z" fill="url(#shell)"/>
    <path d="M141 56C128 74 120 88 111 103C98 123 78 132 54 131" stroke="#FFF6E4" stroke-opacity="0.46" stroke-width="8" stroke-linecap="round"/>
    <path d="M135 49C140 68 134 91 121 108" stroke="#BC7238" stroke-opacity="0.3" stroke-width="6" stroke-linecap="round"/>
    <path d="M142 74L132 86L139 97L127 108L135 118L122 129L128 141L116 153L110 165" stroke="url(#crumb)" stroke-width="18" stroke-linecap="round" stroke-linejoin="round"/>
    <path d="M143 75L132 86L139 97L127 108L135 118L122 129L128 141L116 153L111 163" stroke="#6F4019" stroke-opacity="0.44" stroke-width="5" stroke-linecap="round" stroke-linejoin="round"/>
    <path d="M116 152C111 158 105 165 96 170" stroke="#6F4019" stroke-opacity="0.24" stroke-width="10" stroke-linecap="round"/>
    <circle cx="124" cy="120" r="4" fill="#EBC286"/>
    <circle cx="118" cy="134" r="3" fill="#EBC286"/>
    <circle cx="111" cy="147" r="3" fill="#EBC286"/>
  </g>
</svg>
