<svg width="220" height="220" viewBox="0 0 220 220" fill="none" xmlns="http://www.w3.org/2000/svg">
  <defs>
    <filter id="shadow" x="34" y="18" width="182" height="180" filterUnits="userSpaceOnUse">
      <feDropShadow dx="0" dy="12" stdDeviation="9" flood-color="#8F5B2E" flood-opacity="0.24"/>
    </filter>
    <radialGradient id="shell" cx="0" cy="0" r="1" gradientUnits="userSpaceOnUse" gradientTransform="translate(114 96) rotate(46) scale(96 86)">
      <stop offset="0" stop-color="#F7D69F"/>
      <stop offset="0.45" stop-color="#E4A059"/>
      <stop offset="1" stop-color="#B96D2D"/>
    </radialGradient>
    <linearGradient id="crumb" x1="102" y1="70" x2="116" y2="164" gradientUnits="userSpaceOnUse">
      <stop stop-color="#855021"/>
      <stop offset="1" stop-color="#D89A63"/>
    </linearGradient>
  </defs>
  <g filter="url(#shadow)">
    <path d="M182 132C182 81 144 40 93 40C74 40 58 46 50 58C44 66 43 80 47 92C53 109 65 116 75 123C86 130 91 142 99 156C108 170 121 177 136 177C163 177 182 158 182 132Z" fill="url(#shell)"/>
    <path d="M79 56C92 74 100 88 109 103C122 123 142 132 166 131" stroke="#FFF6E4" stroke-opacity="0.46" stroke-width="8" stroke-linecap="round"/>
    <path d="M85 49C80 68 86 91 99 108" stroke="#BC7238" stroke-opacity="0.3" stroke-width="6" stroke-linecap="round"/>
    <path d="M78 74L88 86L81 97L93 108L85 118L98 129L92 141L104 153L110 165" stroke="url(#crumb)" stroke-width="18" stroke-linecap="round" stroke-linejoin="round"/>
    <path d="M77 75L88 86L81 97L93 108L85 118L98 129L92 141L104 153L109 163" stroke="#6F4019" stroke-opacity="0.44" stroke-width="5" stroke-linecap="round" stroke-linejoin="round"/>
    <path d="M104 152C109 158 115 165 124 170" stroke="#6F4019" stroke-opacity="0.24" stroke-width="10" stroke-linecap="round"/>
    <circle cx="96" cy="120" r="4" fill="#EBC286"/>
    <circle cx="102" cy="134" r="3" fill="#EBC286"/>
    <circle cx="109" cy="147" r="3" fill="#EBC286"/>
  </g>
</svg>
